<svg xmlns="http://www.w3.org/2000/svg" viewBox="0 0 1337.9 500"><style>.st0{display:none}.st1{fill:#ffccd5}.st1,.st2{display:inline}.st2{fill:#d7ebff}.st3{opacity:.4}.st4{fill:url(#SVGID_1_)}.st5{fill:url(#SVGID_2_)}.st6{fill:url(#SVGID_3_)}.st7{fill:url(#SVGID_4_)}.st8{fill:url(#SVGID_5_)}.st9{fill:url(#SVGID_6_)}.st10{fill:url(#SVGID_7_)}.st11{fill:url(#SVGID_8_)}.st12{fill:url(#SVGID_9_)}.st13{fill:url(#SVGID_10_)}.st14{fill:url(#SVGID_11_)}.st15{fill:url(#SVGID_12_)}.st16{fill:url(#SVGID_13_)}.st17{fill:url(#SVGID_14_)}.st18{fill:url(#SVGID_15_)}.st19{fill:url(#SVGID_16_)}.st20{fill:url(#SVGID_17_)}.st21{fill:url(#SVGID_18_)}.st22{fill:url(#SVGID_19_)}.st23{fill:url(#SVGID_20_)}.st24{fill:url(#SVGID_21_)}.st25{fill:url(#SVGID_22_)}.st26{fill:url(#SVGID_23_)}.st27{opacity:.4;fill:url(#SVGID_24_)}.st28{fill:#ff61a2}.st29{fill:#29d2ff}.st30{fill:#ff4592}.st31{opacity:.12;fill:url(#SVGID_25_)}.st32{opacity:.12;fill:url(#SVGID_26_)}.st33{fill:#ff82b5}.st34{fill:#ffa16b}.st35{fill:#20f58d}.st36{opacity:.2;fill:url(#SVGID_27_)}.st37{fill:#ff8945}.st38{opacity:.3;fill:url(#SVGID_28_)}.st39{fill:#862afa}.st40{opacity:.12;fill:url(#SVGID_29_)}.st41{fill:#7518eb}.st42{opacity:.2;fill:url(#SVGID_30_)}.st43{fill:#76ffbc}.st44{fill:#FFF}.st45{fill:#008c8c}.st46{fill:#00c9ff}.st47{opacity:.12;fill:url(#SVGID_31_)}.st48{opacity:8e-2;fill:url(#SVGID_32_)}.st49{fill:#69e0ff}.st50{opacity:.12;fill:url(#SVGID_33_)}.st51{opacity:.12;fill:url(#SVGID_34_)}.st52{opacity:.12;fill:url(#SVGID_35_)}.st53{opacity:.12;fill:url(#SVGID_36_)}.st54{opacity:.12;fill:url(#SVGID_37_)}.st55{opacity:.12;fill:url(#SVGID_38_)}.st56{opacity:.2;fill:url(#SVGID_39_)}.st57{fill:#ffb68c}.st58{opacity:.12;fill:url(#SVGID_40_)}.st59{fill:url(#SVGID_41_)}.st59,.st60{opacity:.12}.st61{fill:url(#SVGID_42_)}.st62{fill:#ff8138}.st63{opacity:.12;fill:url(#SVGID_43_)}.st64{opacity:8e-2;fill:url(#SVGID_44_)}.st65{opacity:.12;fill:url(#SVGID_45_)}.st66{opacity:.12;fill:url(#SVGID_46_)}</style><g id="Layer_4" class="st0"><path class="st1" d="M0 0h1337.9v500H0z"/><path class="st2" d="M-1305.1 0h1280v500h-1280z"/></g><g id="Layer_1"><g class="st3"><linearGradient id="SVGID_1_" gradientUnits="userSpaceOnUse" x1="384.983" y1="262.305" x2="433.968" y2="234.023" gradientTransform="matrix(1 -.0147 0 1 0 13.068)"><stop offset="0"/><stop offset="1" stop-opacity=".2"/></linearGradient><path class="st4" d="M428.2 246.3l-11.6 3 2.7-6.5-23.6.3-2.7 6.5-11.5 3 5.1 3.2-6.3 5.9 14.1 8.6 23.6-.3 5.7-5.4 4.2-.1 2.8-6.6 11.5-3z"/><linearGradient id="SVGID_2_" gradientUnits="userSpaceOnUse" x1="1023.649" y1="209.661" x2="1100.163" y2="165.485" gradientTransform="matrix(1 -.0147 0 1 0 13.068)"><stop offset="0"/><stop offset="1" stop-opacity=".2"/></linearGradient><path class="st5" d="M1092 173.5l4.5-.8c1.5-.3 3.1-1.1 3.7-1.8l2.5-3.2c.6-.7-.1-1.2-1.6-.9l-4.6.8-32.6-19.7 1.9-2.4c.6-.7-.1-1.2-1.6-.9l-4.5.8h-.1l-4.6 5.9h-.1l-2.8 4.7 14.3 14.1-41.7.6h-.1l-14.8 14 36.5 22.5 48.7-.7 14.8-14-17.8-19z"/><linearGradient id="SVGID_3_" gradientUnits="userSpaceOnUse" x1="312.154" y1="181.504" x2="388.979" y2="137.149" gradientTransform="matrix(1 -.0147 0 1 0 13.068)"><stop offset="0"/><stop offset="1" stop-opacity=".2"/></linearGradient><path class="st6" d="M316.5 153.6l-16.4 15.6 33.2 20.5.1-.1 44.3-.6 16.5-15.6 2.4-2.3h2.9l3.2-3.1-35-21.5-47.1.7h-.1l-3.2 3 1.7 1.1z"/><linearGradient id="SVGID_4_" gradientUnits="userSpaceOnUse" x1="541.165" y1="174.571" x2="636.792" y2="119.361" gradientTransform="matrix(1 -.0147 0 1 0 13.068)"><stop offset="0"/><stop offset="1" stop-opacity=".2"/></linearGradient><path class="st7" d="M597.2 123.4L540 177.6l14.9 8.9 20.6-.3 52.2-49.5 5-4.7 7.3-3.3-8.7.1-3-7-6.6-3.9-3.5-2.1-4.9-2.9-7 2 6.1 3.6-13.9.2-1.3 4.7z"/><linearGradient id="SVGID_5_" gradientUnits="userSpaceOnUse" x1="941.747" y1="265.161" x2="988.028" y2="238.441" gradientTransform="matrix(1 -.0147 0 1 0 13.068)"><stop offset="0"/><stop offset="1" stop-opacity=".2"/></linearGradient><path class="st8" d="M984.3 240.8l-32.8.4-4.5 4.3 1 .6-1.8 1.7-9.1 8.6 8.3 5.2 31.2-.5 9.1-8.6 1.8-1.7h1.6l4.5-4.3h-.1z"/><linearGradient id="SVGID_6_" gradientUnits="userSpaceOnUse" x1="158.941" y1="285.496" x2="236.098" y2="240.95" gradientTransform="matrix(1 -.0147 0 1 0 13.068)"><stop offset="0"/><stop offset="1" stop-opacity=".2"/></linearGradient><path class="st9" d="M247.6 281.2l5.9-.8-27.3-16.8-5.9.8-4.7-19.1 4-3.8-19.1.3-.1.1c-.9.9-3 1.6-4.7 1.6-1.7 0-2.2-.7-1.3-1.6 0 0 .1 0 .1-.1l-20.6.3-4 3.8 4.7 19.1-6.8.5 3.8 2.3-2.3 2.1-16.5 15.6 27.3 16.8 45.7-.7 16.5-15.6 2.3-2.1 6.3-.1-3.3-2.6zm-49.5-16.4l-23.4.4 23.4-.4z"/><linearGradient id="SVGID_7_" gradientUnits="userSpaceOnUse" x1="1138.341" y1="329.065" x2="1216.811" y2="283.76" gradientTransform="matrix(1 -.0147 0 1 0 13.068)"><stop offset="0"/><stop offset="1" stop-opacity=".2"/></linearGradient><path class="st10" d="M1229.4 300.5l-33.1-20.3-44.5.6h-.1l-7.6 7.2 1.6 1-3.1 2.9-15.3 14.5 31.4 19.4 42-.6 18.3-17.4h2.7z"/><linearGradient id="SVGID_8_" gradientUnits="userSpaceOnUse" x1="327.973" y1="387.765" x2="380.6" y2="357.38" gradientTransform="matrix(1 -.0147 0 1 0 13.068)"><stop offset="0"/><stop offset="1" stop-opacity=".2"/></linearGradient><path class="st11" d="M330.6 369.5l-.2-6.6-11.6 11 .2 4.2-2.2-1.3 2.2 3.7 26.5 16.3h.2l14 3.1 3.6-3.4 17.7-.2 11.5-11L366 369z"/><linearGradient id="SVGID_9_" gradientUnits="userSpaceOnUse" x1="1014.146" y1="413.998" x2="1061.344" y2="386.749" gradientTransform="matrix(1 -.0147 0 1 0 13.068)"><stop offset="0"/><stop offset="1" stop-opacity=".2"/></linearGradient><path class="st12" d="M1065.6 391.4l-11.5-7.1-15.3-3.7-2.1 2 3.1 1.9-5.2.1-7.4 1.7h5.7l-21.8 20.6 11.5 7.1 19.4-.3 18.7-17.7.9-.9h5.2z"/><linearGradient id="SVGID_10_" gradientUnits="userSpaceOnUse" x1="659.004" y1="405.491" x2="694.418" y2="385.044" gradientTransform="matrix(1 -.0147 0 1 0 13.068)"><stop offset="0"/><stop offset="1" stop-opacity=".2"/></linearGradient><path class="st13" d="M666.9 390.9l-11.8 11.2 6.7 4.1 14.7-.2h3.1l2-.1h4.9l11.9-11.2-6.8-4.1z"/><linearGradient id="SVGID_11_" gradientUnits="userSpaceOnUse" x1="859.122" y1="379.44" x2="937.042" y2="334.453" gradientTransform="matrix(1 -.0147 0 1 0 13.068)"><stop offset="0"/><stop offset="1" stop-opacity=".2"/></linearGradient><path class="st14" d="M943.9 358.3l-27.3-16.8h-.1l-23.8-7.2 7 4.3-2.4-.4-45.7.7 19.1 3.3-18.4 6.9 6.8 4.2-1.4 1.4-8.6 8.2 27.3 16.8 45.7-.7 6.7-6.4 5-4.7 22.8-.3-12.7-9.3zm-39.2-16.6l-33.8.5h-.1l33.9-.5z"/><linearGradient id="SVGID_12_" gradientUnits="userSpaceOnUse" x1="829.017" y1="130.149" x2="878.592" y2="101.526" gradientTransform="matrix(1 -.0147 0 1 0 13.068)"><stop offset="0"/><stop offset="1" stop-opacity=".2"/></linearGradient><path class="st15" d="M835.6 106.3l-13.5 12.8 16.9 10.5 28.4-.5 13.5-12.8-2.9-1.8 6.2-.1.1-2.9-20.3-5.6-28.4.4h.1z"/></g><g class="st3"><linearGradient id="SVGID_13_" gradientUnits="userSpaceOnUse" x1="739.978" y1="255.982" x2="833.654" y2="201.898" gradientTransform="matrix(1 -.0147 0 1 0 13.068)"><stop offset="0"/><stop offset="1" stop-opacity=".2"/></linearGradient><path class="st16" d="M808.2 196.1l-26.1.4h-.1l-50.2 47.6 33.7 20.7 26.1-.4 50.3-47.6z"/><linearGradient id="SVGID_14_" gradientUnits="userSpaceOnUse" x1="541.475" y1="330.988" x2="649.309" y2="268.73" gradientTransform="matrix(1 -.0147 0 1 0 13.068)"><stop offset="0"/><stop offset="1" stop-opacity=".2"/></linearGradient><path class="st17" d="M626.2 277.3l-53.4-9.1-11.8 4.5-.5 3.1c-.1 1 1 1.4 2.5.8l2.6-1 5 3.1-12.4-.3h-.1L525.7 309l40.6 25 68-1 32-30.3.5-.4-40.6-25z"/><linearGradient id="SVGID_15_" gradientUnits="userSpaceOnUse" x1="852.711" y1="172.982" x2="872.277" y2="172.982" gradientTransform="matrix(1 -.0147 0 1 0 13.068)"><stop offset="0"/><stop offset="1" stop-opacity=".2"/></linearGradient><path class="st18" d="M856.6 170.5l-3.9 3.5 3.7 2.5 12-.2 3.9-3.5-3.7-2.6z"/><linearGradient id="SVGID_16_" gradientUnits="userSpaceOnUse" x1="237.442" y1="383.796" x2="259.639" y2="383.796" gradientTransform="matrix(1 -.0147 0 1 0 13.068)"><stop offset="0"/><stop offset="1" stop-opacity=".2"/></linearGradient><path class="st19" d="M242.3 389.6l-4.9 4.4 4.7 3.1 12.7-.2 4.8-4.4-4.6-3.2z"/><linearGradient id="SVGID_17_" gradientUnits="userSpaceOnUse" x1="173.886" y1="136.307" x2="198.973" y2="136.307" gradientTransform="matrix(1 -.0147 0 1 0 13.068)"><stop offset="0"/><stop offset="1" stop-opacity=".2"/></linearGradient><path class="st20" d="M199 145.9l-4.8-3.3-15.4.3-4.9 4.5 4.8 3.2 15.3-.2z"/><linearGradient id="SVGID_18_" gradientUnits="userSpaceOnUse" x1="1133.938" y1="389.882" x2="1156.149" y2="389.882" gradientTransform="matrix(1 -.0147 0 1 0 13.068)"><stop offset="0"/><stop offset="1" stop-opacity=".2"/></linearGradient><path class="st21" d="M1152.4 381.8l-12 .2-6.5 5.9 3.8 2.5 11.9-.2 6.5-5.9z"/><linearGradient id="SVGID_19_" gradientUnits="userSpaceOnUse" x1="837.489" y1="439.983" x2="862.082" y2="439.983" gradientTransform="matrix(1 -.0147 0 1 0 13.068)"><stop offset="0"/><stop offset="1" stop-opacity=".2"/></linearGradient><path class="st22" d="M844.2 435.4l-6.7 6.1 6.4 4.4 11.5-.2 6.7-6.1-6.5-4.4z"/><linearGradient id="SVGID_20_" gradientUnits="userSpaceOnUse" x1="737.874" y1="308.285" x2="752.049" y2="308.285" gradientTransform="matrix(1 -.0147 0 1 0 13.068)"><stop offset="0"/><stop offset="1" stop-opacity=".2"/></linearGradient><path class="st23" d="M741.7 307.4l-3.8 3.5 3.7 2.6 6.6-.1 3.8-3.5-3.7-2.6z"/><linearGradient id="SVGID_21_" gradientUnits="userSpaceOnUse" x1="303.948" y1="269.138" x2="320.219" y2="269.138" gradientTransform="matrix(1 -.0147 0 1 0 13.068)"><stop offset="0"/><stop offset="1" stop-opacity=".2"/></linearGradient><path class="st24" d="M309.9 273.7l-6 5.4 3.8 2.5 6.6-.1 5.9-5.4-3.7-2.5z"/><linearGradient id="SVGID_22_" gradientUnits="userSpaceOnUse" x1="927.585" y1="96.569" x2="941.762" y2="96.569" gradientTransform="matrix(1 -.0147 0 1 0 13.068)"><stop offset="0"/><stop offset="1" stop-opacity=".2"/></linearGradient><path class="st25" d="M931.4 92.9l-3.8 3.5 3.7 2.6 6.6-.1 3.9-3.5-3.8-2.6z"/><linearGradient id="SVGID_23_" gradientUnits="userSpaceOnUse" x1="463.954" y1="430.932" x2="488.465" y2="430.932" gradientTransform="matrix(1 -.0147 0 1 0 13.068)"><stop offset="0"/><stop offset="1" stop-opacity=".2"/></linearGradient><path class="st26" d="M478.1 429.3L464 442.2l3.7 2.6 6.6-.1 14.2-12.9-3.8-2.6z"/></g><linearGradient id="SVGID_24_" gradientUnits="userSpaceOnUse" x1="1190.004" y1="157.422" x2="1220.339" y2="157.422" gradientTransform="matrix(1 -.0147 0 1 0 13.068)"><stop offset="0"/><stop offset="1" stop-opacity=".2"/></linearGradient><path class="st27" d="M1217.2 146.6l-14-2.4-3.1 1.2-.1.8c0 .3.3.4.6.2l.7-.3 1.3.8-3.3-.1-8.5 8 10.6 6.5 17.8-.3 8.4-7.9.1-.1-10.5-6.4z"/><path class="st28" d="M394.5 270.3l-23.8-8.5v-22.7l23.8 8.5z"/><path class="st29" d="M385.2 257.5l-4.7-6.4-4.8 3.2 4.8 6.3z"/><path class="st30" d="M394.5 247.6l-23.8-8.5 23.8-8.5 23.7 8.5z"/><linearGradient id="SVGID_25_" gradientUnits="userSpaceOnUse" x1="382.746" y1="235.482" x2="385.383" y2="248.292"><stop offset="0"/><stop offset=".853" stop-opacity=".147"/><stop offset="1" stop-opacity="0"/></linearGradient><path class="st31" d="M394.5 247.6l-23.8-8.5 23.8-8.5z"/><path class="st30" d="M394.5 270.3l23.7-8.5v-22.7l-23.7 8.5z"/><linearGradient id="SVGID_26_" gradientUnits="userSpaceOnUse" x1="394.48" y1="257.071" x2="394.48" y2="246.885"><stop offset="0"/><stop offset="1" stop-opacity="0"/></linearGradient><path class="st32" d="M394.5 247.6l-23.8-8.5v7.8l23.8 8.5 23.7-8.5v-7.8z"/><path class="st28" d="M398.8 258.6l23.7-8.5-4.3-11-23.7 8.5z"/><path class="st33" d="M385.9 256.1l-23.7-8.5 8.5-8.5 23.8 8.5zM418.2 239.1l-23.7-8.5 8.5-8.6 23.8 8.5z"/><path class="st28" d="M390.2 219.7l-23.7 8.5 4.2 11 23.8-8.5z"/><path class="st34" d="M1046.7 206.9l-61.6-22v-26.5l61.6 22.1z"/><path class="st35" d="M1020.3 184.8l-6.1-8.3-6.2 4.1 6.2 8.2z"/><path class="st29" d="M1020.9 178.2l-13.4-4.8v-1.7l13.4 4.8z"/><path class="st30" d="M1046.7 180.5l-61.6-22 49-17.6 61.6 22.1z"/><path class="st29" d="M1046.7 180.5l-25.1-8.9 12.5-4.5 24.6 9.2z"/><linearGradient id="SVGID_27_" gradientUnits="userSpaceOnUse" x1="1017.57" y1="153.882" x2="1009.587" y2="162.828"><stop offset="0"/><stop offset="1" stop-opacity="0"/></linearGradient><path class="st36" d="M1034.1 167.1l-12.5 4.5-36.5-13.1 49-17.6z"/><path class="st37" d="M1046.7 206.9l49-17.5V163l-49 17.5z"/><path class="st35" d="M1057 140.4l-61.9-21.8 39 22.3 61.6 22.1z"/><linearGradient id="SVGID_28_" gradientUnits="userSpaceOnUse" x1="1043.502" y1="130.13" x2="1045.131" y2="139.363"><stop offset="0"/><stop offset="1" stop-opacity="0"/></linearGradient><path class="st38" d="M1057 140.4l-61.9-21.8 39 22.3 61.6 22.1z"/><path class="st34" d="M1057 140.4l2.2 8.1 29.6 17 6.9-2.5z"/><path class="st37" d="M995.1 118.6l2.2 8.1 32.3 18.1 4.5-3.9zM995.3 118.7l3.7-2.7c1.2-.9 2.1-2.7 1.9-4l-.9-5.7c-.2-1.3-1.4-1.7-2.6-.8l-3.7 2.7 1.6 10.5z"/><path class="st35" d="M1055.3 129.8l1.7 10.6-61.8-21.7-1.7-10.6z"/><path class="st34" d="M1057 140.4l3.7-2.7c1.2-.9 2.1-2.7 1.9-4l-.9-5.7c-.2-1.3-1.4-1.7-2.6-.8l-3.7 2.7 1.6 10.5z"/><path class="st28" d="M1201.5 161.4l-16.7-6v-16.1l16.7 6.1z"/><path class="st39" d="M1201.5 145.4l-16.7-6 16.7-6.1 16.8 6z"/><linearGradient id="SVGID_29_" gradientUnits="userSpaceOnUse" x1="1193.243" y1="136.815" x2="1195.106" y2="145.862"><stop offset="0"/><stop offset=".853" stop-opacity=".147"/><stop offset="1" stop-opacity="0"/></linearGradient><path class="st40" d="M1201.5 145.4l-16.7-6 16.7-6.1z"/><path class="st34" d="M1201.5 161.4l16.8-6v-16.1l-16.8 6.1z"/><path class="st29" d="M1208.9 139.9l-16.8-6-7.3 5.5 16.7 6zM1218.4 139.4l-16.8-6.1-9.4-.8 16.8 6z"/><path class="st28" d="M333.3 189.7l-56.2-20.1v-38l56.2 20.1z"/><path class="st41" d="M333.3 151.8l-56.2-20.1 44.7-16 56.1 20.1z"/><path class="st39" d="M333.3 189.6l44.6-16v-37.8l-44.6 15.9z"/><linearGradient id="SVGID_30_" gradientUnits="userSpaceOnUse" x1="327.546" y1="140.4" x2="327.546" y2="153.625"><stop offset="0"/><stop offset="1" stop-opacity="0"/></linearGradient><path class="st42" d="M333.3 151.7l-56.2-20.1v8.5l56.2 20.1 44.6-16v-8.4z"/><path class="st43" d="M321.8 111.9L274.4 129l-.1-.1v5.8l59 18.7 47.5-14.5v-5.8z"/><path class="st35" d="M333.3 155.8l-59-21.1v-5.8l59 21.2z"/><path class="st44" d="M281.9 131.7l-.1-.1v5.8l17.8 6.4v-5.7l59.3-3.5z"/><path class="st45" d="M333.3 155.8l47.5-16.9v-5.8l-47.5 17z"/><g><path class="st29" d="M554.8 84.2l-24.9-8.6v102.3l24.9 8.6 20.7-7.4V76.7z"/><path class="st46" d="M554.8 186.5l20.7-7.4V76.7l-20.7 7.5z"/><path class="st35" d="M546.6 123.5l-9.8-3.4V89.3l9.8 3.4z"/><path class="st34" d="M550.9 125.8l-1.6-.5v-2.2l-15.2-5.3v2.3l-1.6-.6.9 1.5-.9.8 3.2 1.1v-2l12 4.2v2l3.2 1.1-.9-1.5z"/><path class="st29" d="M547.3 100.3l-11.2-3.8V94l11.2 3.9z"/><path class="st35" d="M554.8 84.2l-24.9-8.6 20.7-7.5 24.9 8.6z"/><linearGradient id="SVGID_31_" gradientUnits="userSpaceOnUse" x1="550.638" y1="76.178" x2="575.539" y2="76.178"><stop offset="0"/><stop offset="1" stop-opacity="0"/></linearGradient><path class="st47" d="M554.8 84.2l-4.2-1.4V68.1l24.9 8.6z"/><path class="st46" d="M547 81.6l-7.2-2.5-2.1-3.2 7.2 2.5z"/><path class="st29" d="M544.9 76.9c0-1.1-.9-2.4-2-2.7l-3.1-1.1c-1.1-.4-2 .2-2 1.3v1.5l7.2 2.5v-1.5h-.1z"/><path class="st46" d="M526.3 68.1l20.8-7.5 3.5 7.5-20.7 7.5z"/><path class="st45" d="M560.1 62.7l-24.9-8.5 15.4 13.9 24.9 8.6z"/><path class="st29" d="M549.1 58.9l-.3.3-5.8-2 .3-.3-8.1-2.8-5 5.4 24.9 8.6 5-5.4z"/><linearGradient id="SVGID_32_" gradientUnits="userSpaceOnUse" x1="562.761" y1="74.966" x2="573.604" y2="99.883"><stop offset="0"/><stop offset="1" stop-opacity="0"/></linearGradient><path class="st48" d="M569.1 104.2l6.4-18.6v-8.9l-20.7 7.5z"/><path class="st46" d="M558.7 76.7l20.8-7.5-4 7.5-20.7 7.5z"/></g><g><path class="st46" d="M945.4 261.6l31.4-11.3v-26.6L945.4 235z"/><path class="st46" d="M945.4 235l31.4-11.2-14.1-5.1-31.4 11.2z"/><path class="st49" d="M945.4 234.1l33-11.8-15.7-5.7-33 11.8z"/><path class="st29" d="M945.4 261.6l-14.1-5.1v-26.6l14.1 5.1z"/><linearGradient id="SVGID_33_" gradientUnits="userSpaceOnUse" x1="-1700.004" y1="247.532" x2="-1700.004" y2="234.073" gradientTransform="matrix(-1 0 0 1 -745.976 0)"><stop offset="0"/><stop offset="1" stop-opacity="0"/></linearGradient><path class="st50" d="M945.4 235l31.4-11.3v10.4l-31.4 11.2-14.1-5.1v-10.3z"/><path class="st46" d="M945.4 242.1l33-11.8v-8.1l-33 11.8z"/><path class="st29" d="M945.4 242.1l-15.7-5.6v-8.1l15.7 5.6z"/></g><g><path class="st29" d="M179.9 302.5L134 286v-39l45.9 16.5z"/><path class="st28" d="M146.364 265.652l.882-.657 16.65 22.387-.882.656z"/><path class="st28" d="M147.8 282.6l-.6-.9 16.7-10.9.6.9zM158.5 269.3c-2.1-2.8-5-3.6-6.5-2.6l-1.9-2.8c3.2-2.1 8.1-.6 11.1 3.4l-2.7 2zM149.8 274l-5.8-2v1.1l5.8 2zM161.3 277.9l5.8 2v1.2l-5.8-2z"/><linearGradient id="SVGID_34_" gradientUnits="userSpaceOnUse" x1="179.942" y1="258.04" x2="179.942" y2="264.306"><stop offset="0"/><stop offset="1" stop-opacity="0"/></linearGradient><path class="st51" d="M179.9 263.5L134 247v9.5l45.9 16.5 46-16.5V247z"/><path class="st49" d="M173.6 266.6l-46-16.5 6.4-3.1 45.9 16.5z"/><path class="st39" d="M179.9 263.5L134 247.1l45.9-16.6 46 16.5z"/><linearGradient id="SVGID_35_" gradientUnits="userSpaceOnUse" x1="202.748" y1="232.972" x2="202.748" y2="257.863"><stop offset="0"/><stop offset="1" stop-opacity="0"/></linearGradient><path class="st52" d="M179.9 230.6v32.9l45.7-16.5z"/><path class="st46" d="M179.9 302.5l46-16.5v-39l-46 16.5z"/><path class="st49" d="M186.3 266.6l46-16.5-6.4-3.1-46 16.5zM154.5 202.8l-46 16.5L134 247l45.9-16.4z"/><path class="st46" d="M135.3 202.5v.2c0 1.7-1.4 3.5-3 4.1-1.7.6-3-.3-3-2v-.1l-20.7 7.4v7.2l46-16.5v-7.2l-19.3 6.9z"/><path class="st49" d="M185.2 227.4l46 16.5-5.3 3.1-46-16.4z"/></g><g><path class="st28" d="M1158.9 325.8l-53.1-19v-45l53.1 19z"/><path class="st30" d="M1158.9 325.8l42.2-15.1v-44.9l-42.2 15z"/><path class="st44" d="M1201.1 298.5c-.8-.3-1.8-.3-2.9 0-2.6.9-4.8 3.8-4.8 6.4 0 2.6 2.1 4 4.8 3.1 1.1-.4 2.1-1.1 2.9-1.9v-7.6zM1187.4 289.5c0-2.6 2.1-5.5 4.8-6.4s4.8.5 4.8 3.1-2.1 5.5-4.8 6.4-4.8-.5-4.8-3.1zM1180 303.3c0-2.6 2.1-5.5 4.8-6.4 2.6-.9 4.8.5 4.8 3.1s-2.1 5.5-4.8 6.4c-2.7.9-4.8-.5-4.8-3.1zM1171.1 315.2c-2.6.9-4.8 3.8-4.8 6.4 0 .5.1 1 .2 1.4l9.1-3.3c.1-.5.2-1 .2-1.5 0-2.5-2.1-3.9-4.7-3z"/><path class="st39" d="M1162.5 320.2l17.1-6.6v-6.9l-17.1 6.6z"/><path class="st44" d="M1161.9 291.2c0-2.6 2.1-5.5 4.8-6.4 2.6-.9 4.8.5 4.8 3.1s-2.1 5.5-4.8 6.4c-2.7.9-4.8-.5-4.8-3.1z"/><linearGradient id="SVGID_36_" gradientUnits="userSpaceOnUse" x1="1153.466" y1="302.064" x2="1153.466" y2="279.301"><stop offset="0"/><stop offset="1" stop-opacity="0"/></linearGradient><path class="st53" d="M1158.9 280.8l-53.1-19v17.5l53.1 19 42.2-15.1v-17.4z"/><path class="st49" d="M1203.8 263.2l-55.7-20-44.9 16.1h-.1v13.6l55.7 20h.1l44.9-16z"/><path class="st29" d="M1158.9 292.9l-55.8-20v-13.6l55.8 19.9z"/><path class="st46" d="M1158.8 292.9l45-16v-13.7l-45 16z"/></g><g><path class="st49" d="M345.8 396.9l-44.7-16v-20.8l44.7 16.1z"/><linearGradient id="SVGID_37_" gradientUnits="userSpaceOnUse" x1="301.072" y1="382.492" x2="381.477" y2="382.492"><stop offset="0"/><stop offset="1" stop-opacity="0"/></linearGradient><path class="st54" d="M345.8 396.9l-44.7-16 35.6-12.8 44.8 16z"/><path class="st43" d="M293.8 370.8l7.3 10v-20.6l-7.3-10.1z"/><path class="st35" d="M345.8 396.9l-44.7-16-6.3-5 44.7 16.1z"/><path class="st43" d="M345.8 376.2l-44.7-16 35.6-12.8 44.8 16z"/><path class="st44" d="M336.3 357.3v-.8c4.6 0 8.7.7 11.9 1.7l-11.4 4.3-8.4-3.1-1.6.6 8.4 3.1-2.4.9c-1.2-.2-2.7-.1-3.7.3-1.3.5-1.3 1.3 0 1.8s3.4.5 4.7 0c1-.4 1.2-.9.7-1.4l2.4-.9 8.4 3.1 1.6-.6-8.4-3.1 11.4-4.3c2.8 1.2 4.5 2.8 4.6 4.5h-2.2c0 1.6 3.4 2.8 7.5 2.8v-1.8c-1.4 0-2.6-.4-2.6-.9h2.2c0-2.4-2.6-4.6-6.8-6.1-4.2-1.6-10-2.5-16.4-2.5v.8c-1.4 0-2.5-.5-2.5-1h-4.9c0 1.3 3.3 2.6 7.5 2.6z"/><path class="st28" d="M345.8 396.8l35.7-12.7v-20.7l-35.7 12.8z"/><path class="st35" d="M345.8 396.8l17.9.1v-20.7h-17.9zM340.7 382.4l-44.8-16 5.2-6.3 44.7 16.1z"/></g><g><path class="st46" d="M997.1 370.1l19.5-7 5.7-5.1-19.5 7z"/><path class="st29" d="M1022.3 414.1l-19.5-7V365l19.5 7z"/><path class="st28" d="M1017.1 390l-9.3-3.3v-20l9.3 3.3z"/><path class="st44" d="M1014 374.3c0-1-.8-2-1.7-2.3-.9-.3-1.7.2-1.7 1.1 0 1 .8 2 1.7 2.3.9.4 1.7-.1 1.7-1.1zM1017.1 395.8l-9.3-3.3v-3.6l9.3 3.4z"/><path class="st39" d="M1022.3 372l-19.5-7 19.1-6.8 19.9 6.8z"/><path class="st49" d="M1022.3 364.5l-19.5-7 19.6.4 19.4 7.1z"/><path class="st29" d="M1022.3 368.2l-19.5-7v-3.7l19.5 7z"/><path class="st46" d="M1022.3 414.1l19.5-7V365l-19.5 7z"/><linearGradient id="SVGID_38_" gradientUnits="userSpaceOnUse" x1="1031.864" y1="371.801" x2="1033.117" y2="377.939"><stop offset="0"/><stop offset="1" stop-opacity="0"/></linearGradient><path class="st55" d="M1022.3 380.6l19.5-7V365l-19.5 7z"/><path class="st49" d="M1027.5 377.1l19.5-7-5.2-5.1-19.5 7z"/></g><g><path class="st35" d="M661.8 406.2l-11.2-4v-21.1l11.2 4z"/><path class="st43" d="M661.8 385.1l-11.2-4 24.9-8.9 11.3 4z"/><path class="st45" d="M661.8 406.2l25-8.9v-21.1l-25 8.9z"/><path class="st34" d="M676.6 401l3.2-1.2v-21.1l-3.2 1.1zM681.8 399.1l3.2-1.2v-21.1l-3.2 1.2z"/><path class="st46" d="M664.4 390.6l8.5-3.1v-2.9l-8.5 3z"/></g><g><path class="st34" d="M853 309.1l-46 16.5 23.1-1.4 46-16.5z"/><path class="st30" d="M876.3 340.7l-46-16.5 46-16.5 46 16.4z"/><linearGradient id="SVGID_39_" gradientUnits="userSpaceOnUse" x1="853.268" y1="315.519" x2="853.268" y2="330.966"><stop offset="0"/><stop offset="1" stop-opacity="0"/></linearGradient><path class="st56" d="M876.3 340.7v-33l-46 16.4z"/><path class="st57" d="M844.1 304.7l46 16.5 32.2 3-46-16.5z"/><ellipse class="st39" cx="893.8" cy="360.5" rx="8" ry="2.6"/><path class="st34" d="M876.3 379.6l-46-16.5v-39l46 16.5z"/><linearGradient id="SVGID_40_" gradientUnits="userSpaceOnUse" x1="830.274" y1="344.145" x2="876.262" y2="344.145"><stop offset="0"/><stop offset="1" stop-opacity="0"/></linearGradient><path class="st58" d="M876.3 364.1l-46-16.4v-23.6l46 16.5z"/><path class="st37" d="M876.3 379.6l46-16.5v-39l-46 16.5z"/><linearGradient id="SVGID_41_" gradientUnits="userSpaceOnUse" x1="886.685" y1="335.375" x2="907.029" y2="352.329"><stop offset="0"/><stop offset="1" stop-opacity="0"/></linearGradient><path class="st59" d="M876.3 367.6l46-16.5v-27l-46 16.5z"/><path class="st46" d="M898.3 345.1l-7.9 2.9v-4.7l7.9-2.9zM906.9 345.1l-16.5 6v-1.8l16.5-6z"/><path class="st39" d="M919.1 346.3l-38.3 14v-1.8l38.3-14zM919.1 349.8l-38.3 14V362l38.3-14zM919.1 353.3l-38.3 14v-1.8l38.3-14z"/><path class="st46" d="M880.8 346.7v7.9l7.9-2.9v-7.9l-7.9 2.9z"/><path class="st34" d="M899.3 350.4l45.9-16.5-22.9-9.8-46 16.5z"/><path class="st57" d="M864.7 357.4L818.8 341l11.3-16.9 46 16.5z"/></g><g><path class="st35" d="M765.4 264.8l-56.8-20.3v-94.2l56.8 20.4z"/><path class="st37" d="M741.6 168.1l-9.1-3.3v-5.9l9.1 3.3z"/><path class="st44" d="M765.4 199.7L708.6 231v-18.6l56.8-31.3z"/><path class="st34" d="M765.4 170.8l-56.8-20.4 26.3-9.5 56.8 20.3z"/><path class="st45" d="M765.4 264.8l26.3-9.5v-94.1l-26.3 9.5z"/><path class="st44" d="M720.6 179.4c2.3 1.3 6.1 1.3 8.4 0 2.3-1.3 2.3-3.5 0-4.9-2.3-1.3-6.1-1.3-8.4 0-2.3 1.4-2.3 3.6 0 4.9zm.5-4.6c2.1-1.2 5.4-1.2 7.5 0 2.1 1.2 2.1 3.2 0 4.3-2.1 1.2-5.4 1.2-7.5 0-2.1-1.1-2.1-3.1 0-4.3z"/><path class="st44" d="M723.3 178.6l-.6-.3 1.2-.7.5.3c1.2.7 2.4.9 3.4.3 1-.6.8-1.3-.4-2l-2-1.2-.6.3.3.1c.1.1.1.2 0 .2l-3.2 1.8c-.1.1-.3.1-.4 0l-.3-.1-.6.3 2.1 1.2.6-.2zm3-2.4l.5.3c.7.4.5.7 0 1-.5.3-1 .4-1.7 0l-.5-.3 1.7-1z"/><path class="st44" d="M736.6 179v-2.2c0-.7-.5-1.3-1.4-1.8l-7.6-4.3c-.8-.4-1.8-.7-2.8-.7-1.1 0-2.1.2-2.8.7l-7.6 4.4c-.8.5-1.3 1.2-1.4 1.9v9.3c0 .8.5 1.5 1.4 2l7.6 4.4c.7.4 1.7.7 2.7.7H725c1 0 2-.2 2.7-.7l7.6-4.4c.9-.5 1.4-1.3 1.4-2v-7c-.1-.1-.1-.2-.1-.3zm-22.4-1.5c0-.7.3-.8.7-1.1l7.6-4.6c1.1-.7 3.2-.7 4.4 0l7.6 4.4c.5.3.8.7.7 1v.6c-.1.1-.3.3-.5.4l-7.6 4.4c-.7.4-1.5.6-2.4.6-.9 0-1.7-.2-2.4-.6l-7.6-4.4c-.2-.1-.4-.3-.5-.4v-.3zm20.4 9.7l-7.6 4.4c-.5.3-1.2.5-2 .5H724.7c-.8 0-1.5-.2-2-.5l-7.6-4.4c-.5-.3-.7-.6-.7-.9v-5.7c.1.1.2.1.3.2l7.6 4.4c.6.4 1.5.6 2.5.6h.2c1 0 1.9-.2 2.5-.6l7.6-4.4c.1-.1.2-.1.3-.2v5.7c-.1.3-.4.6-.8.9zm.7-8v.5c-.1.1-.3.3-.5.4l-7.6 4.5c-.7.4-1.5.6-2.4.6-.9 0-1.7-.2-2.4-.6l-7.6-4.5c-.2-.1-.4-.3-.5-.4v-1.1c.1.1.2.1.3.2l7.6 4.4c.7.4 1.6.6 2.6.6s1.9-.2 2.6-.6l7.6-4.4c.1-.1.2-.1.3-.2v.6z"/><path class="st35" d="M768.2 239.9l11.8-4.5v-2.5l-11.8 4.6zM777.2 196.5L789 192v-2.5l-11.8 4.6zM772.8 217.5l5.1-11.5-1.8-1.7-5 11.5zM782.2 180.8l9.5 4.2v2.4l-9.5-4.1zM787 221.1l4.7 2.1v2.5l-4.7-2.1zM760.9 242.8l11.5 5.1 1.7-1.8-11.5-5zM763.6 180.3l6.1-7.2-1.2-2.2-6.1 7.3z"/></g><g><path class="st41" d="M566.3 276.1l-68.4-24.5 68.4-19.9 68.5 19.8z"/><path class="st37" d="M570.4 255.6l6.3 5.4 57.6-4.1.5-5.4z"/><g class="st60"><linearGradient id="SVGID_42_" gradientUnits="userSpaceOnUse" x1="622.063" y1="251.274" x2="609.688" y2="254.394"><stop offset="0"/><stop offset="1" stop-opacity="0"/></linearGradient><path class="st61" d="M570.4 255.6l6.3 5.4 57.6-4.1.5-5.4z"/></g><path class="st34" d="M566.3 334l-68.4-24.5v-58l68.4 24.5zM502.1 231.3l2.7 4.6c.9 1.6 1 4 .1 5.4l-3.9 5.9c-.9 1.4-2.4 1.2-3.4-.4l-2.8-4.8 7.3-10.7z"/><path class="st57" d="M570.4 255.6l64.4-4.1-68.4-24.5-64.4 4.1-7.2 10.9 68.4 24.5 1.4-2.1-1.4 2.1 2.8 4.8c.9 1.6 2.5 1.8 3.4.4l3.9-5.9c.9-1.4.9-3.8-.1-5.4l-2.8-4.8z"/><path class="st34" d="M570.4 255.6l2.8 4.8c.9 1.6 1 4 .1 5.4l-3.9 5.9c-.9 1.4-2.4 1.2-3.4-.4l-2.8-4.8 7.2-10.9z"/><path class="st34" d="M570.4 255.6L502 231.1l64.4-4.2 68.4 24.6z"/><path class="st37" d="M566.3 334l68.5-24.5v-58L566.3 276z"/><g><path class="st35" d="M522.9 279.3l14.7 5.1c-2.1-2.2-4.6-4-7.4-4.9-2.7-.9-5.2-.9-7.3-.2zM518.5 283.5l23.6 8.1c-.4-1.2-1-2.4-1.7-3.6l-20.2-7c-.8.8-1.3 1.6-1.7 2.5zM517.6 287.8c0 .4 0 .8.1 1.2l25.2 8.7c0-.4.1-.8.1-1.2 0-.9-.1-1.7-.2-2.6l-24.8-8.5c-.3.7-.4 1.5-.4 2.4zM519.7 295.4l21.2 7.3c.8-1 1.5-2.3 1.8-3.7l-24.7-8.5c.2 1.6.8 3.3 1.7 4.9zM530.3 304.8c4.1 1.4 7.7.7 10.1-1.5l-20.1-6.9c2.2 3.7 5.8 7 10 8.4z"/><path class="st29" d="M513.8 284.3l-10.4-3.6v2.6l10.4 3.6zM557.1 299.2l-10.4-3.6v2.6l10.4 3.6z"/></g><path class="st34" d="M570.4 255.6l2.8 4.8c.9 1.6 1 4 .1 5.4l-3.9 5.9c-.9 1.4-2.4 1.2-3.4-.4l-2.8-4.8 7.2-10.9z"/></g><g><path class="st35" d="M838.9 105.4l28.5-10.2-28.5-8.3-28.6 8.2z"/><path class="st62" d="M838.9 105.4l11.4-1.7-28.6-10.3-11.4 1.7z"/><linearGradient id="SVGID_43_" gradientUnits="userSpaceOnUse" x1="1781.784" y1="104.875" x2="1782.574" y2="101.601" gradientTransform="matrix(-1 0 0 1 2625.77 0)"><stop offset="0"/><stop offset="1" stop-opacity="0"/></linearGradient><path class="st63" d="M838.9 105.4l9.9-2.2-5.1-1.8z"/><path class="st62" d="M858.2 101l9.2-5.8-28.5-10.3-9.3 5.8z"/><linearGradient id="SVGID_44_" gradientUnits="userSpaceOnUse" x1="1762.939" y1="99.465" x2="1768.597" y2="95.85" gradientTransform="matrix(-1 0 0 1 2625.77 0)"><stop offset="0"/><stop offset="1" stop-opacity="0"/></linearGradient><path class="st64" d="M858.2 101l9.2-5.8-19.2 2.2z"/><linearGradient id="SVGID_45_" gradientUnits="userSpaceOnUse" x1="1780.89" y1="98.188" x2="1815.441" y2="98.188" gradientTransform="matrix(-1 0 0 1 2625.77 0)"><stop offset="0"/><stop offset="1" stop-opacity="0"/></linearGradient><path class="st65" d="M832.8 103.2l12.1-1.4-24.2-8.6-10.4 1.9z"/><linearGradient id="SVGID_46_" gradientUnits="userSpaceOnUse" x1="1763.736" y1="91.963" x2="1796.154" y2="91.963" gradientTransform="matrix(-1 0 0 1 2625.77 0)"><stop offset="0"/><stop offset="1" stop-opacity="0"/></linearGradient><path class="st66" d="M852.8 99l9.2-5.8-23.1-8.3-9.3 5.8z"/><path class="st34" d="M838.9 105.4l-28.6-10.3v24.2l28.6 10.3 28.5-10.3V95.1z"/><path class="st37" d="M838.9 129.6l28.5-10.3V95.1l-28.5 10.3z"/><path class="st46" d="M838.9 84.9l26.8 1.7 3 4.5-28.5 10.3-3-4.6-26.9-1.7z"/><path class="st49" d="M837.2 96.8l28.5-10.2-26.8-1.7-28.6 10.2z"/></g><path class="st28" d="M856.5 176.6l-6.6-2.4v-6.3l6.6 2.3z"/><path class="st33" d="M856.5 170.2l-6.6-2.3 11.9-4.4 6.6 2.4z"/><path class="st30" d="M856.5 176.6l11.9-4.4v-6.3l-11.9 4.3z"/><path class="st28" d="M242.1 397.1l-8.2-3v-7.9l8.2 3z"/><path class="st33" d="M242.1 389.2l-8.2-3 12.6-4.6 8.3 3z"/><path class="st30" d="M242.1 397.1l12.7-4.6v-7.9l-12.7 4.6z"/><path class="st34" d="M178.6 150.7l-8.4-3v-8.1l8.4 3z"/><path class="st57" d="M178.6 142.6l-8.4-3 15.3-5.6 8.5 3.1z"/><path class="st37" d="M178.6 150.7l15.4-5.5v-8.1l-15.4 5.5z"/><path class="st34" d="M1137.7 390.4l-6.6-2.3v-10.7l6.6 2.4z"/><path class="st57" d="M1137.7 379.8l-6.6-2.4 11.9-4.3 6.6 2.3z"/><path class="st37" d="M1137.7 390.4l11.9-4.3v-10.7l-11.9 4.4z"/><path class="st28" d="M843.8 445.9l-11.4-4.1v-11l11.4 4.1z"/><path class="st33" d="M843.8 434.9l-11.4-4.1 11.4-4.1 11.5 4.1z"/><path class="st30" d="M843.8 445.9l11.5-4.1v-11l-11.5 4.1z"/><path class="st29" d="M741.6 313.5l-6.6-2.4v-6.3l6.6 2.3z"/><path class="st49" d="M741.6 307.1l-6.6-2.3 6.6-2.4 6.6 2.4z"/><path class="st46" d="M741.6 313.5l6.6-2.4v-6.3l-6.6 2.3z"/><path class="st29" d="M307.7 281.6l-6.6-2.3v-9.8l6.6 2.4z"/><path class="st49" d="M307.7 271.9l-6.6-2.4 6.6-2.4 6.6 2.4z"/><path class="st46" d="M307.7 281.6l6.6-2.3v-9.8l-6.6 2.4z"/><path class="st34" d="M931.3 99l-6.6-2.4v-6.3l6.6 2.3z"/><path class="st57" d="M931.3 92.6l-6.6-2.3 6.6-2.4 6.6 2.4z"/><path class="st37" d="M931.3 99l6.6-2.4v-6.3l-6.6 2.3z"/><path class="st34" d="M467.6 444.8l-6.6-2.4v-23.3l6.6 2.4z"/><path class="st57" d="M467.6 421.5l-6.6-2.4 6.6-2.3 6.6 2.3z"/><path class="st37" d="M467.6 444.8l6.6-2.4v-23.3l-6.6 2.4z"/></g></svg>